<svg id="Layer_1" data-name="Layer 1" xmlns="http://www.w3.org/2000/svg" xmlns:xlink="http://www.w3.org/1999/xlink" viewBox="0 0 1308.452 685.834"><defs><style>.cls-1{fill:url(#linear-gradient);}.cls-2{fill:url(#linear-gradient-2);}.cls-3{fill:url(#linear-gradient-3);}.cls-4{fill:url(#linear-gradient-4);}.cls-5{fill:#ea252c;}.cls-6{fill:url(#linear-gradient-5);}</style><linearGradient id="linear-gradient" x1="387.474" y1="600.89" x2="618.505" y2="265.26" gradientTransform="translate(611.068 -176.542) rotate(56.446)" gradientUnits="userSpaceOnUse"><stop offset="0" stop-color="#ea252c"/><stop offset="1" stop-color="#ea252c"/></linearGradient><linearGradient id="linear-gradient-2" x1="609.656" y1="601.02" x2="840.687" y2="265.389" gradientTransform="translate(710.552 -361.642) rotate(56.446)" xlink:href="#linear-gradient"/><linearGradient id="linear-gradient-3" x1="830.656" y1="601.02" x2="1061.687" y2="265.389" gradientTransform="translate(809.4 -545.815) rotate(56.446)" xlink:href="#linear-gradient"/><linearGradient id="linear-gradient-4" x1="1185.017" y1="691.328" x2="1416.048" y2="355.698" gradientTransform="matrix(0.833, -0.553, 0.553, 0.833, -111.991, 702.516)" xlink:href="#linear-gradient"/><linearGradient id="linear-gradient-5" x1="1083.895" y1="789.274" x2="1081.184" y2="190.145" gradientUnits="userSpaceOnUse"><stop offset="0.325" stop-color="#ea252c"/><stop offset="1" stop-color="#ea252c"/></linearGradient></defs><rect class="cls-1" x="76" y="394" width="788" height="174" rx="87" transform="translate(-403.933 468.673) rotate(-56.446)"/><rect class="cls-2" x="298.182" y="394.13" width="788" height="174" rx="87" transform="translate(-304.664 653.889) rotate(-56.446)"/><rect class="cls-3" x="519.182" y="394.13" width="788" height="174" rx="87" transform="translate(-205.817 838.063) rotate(-56.446)"/><rect class="cls-4" x="1173.182" y="84.13" width="174" height="788" rx="87" transform="translate(-261.622 663.238) rotate(-34.654)"/><ellipse class="cls-5" cx="877.696" cy="506.352" rx="101" ry="104.5"/><path class="cls-6" d="M1460,814a1582.135,1582.135,0,0,1-205-208c-90.291-110.339-116.327-172.611-168-172-61.714.729-83.753,90.253-193,214A974.931,974.931,0,0,1,708,811a1118.242,1118.242,0,0,1,81-261c88.86-196.908,216.347-325.874,301-398h0c80.52,68.424,206.431,194.769,292,390A1065.252,1065.252,0,0,1,1460,814Z" transform="translate(-213.304 -138.148)"/></svg>