<svg id="Layer_1" data-name="Layer 1" xmlns="http://www.w3.org/2000/svg" viewBox="0 0 1743.352 388.823"><defs><style>.cls-1{fill:#ea252c;}</style></defs><path class="cls-1" d="M62.645,536.94Q59.864,433.645,61.005,330.3l-10.163,4.209c34.89,30.569,51.487,75.868,83.264,109.175,2.538,2.66,7.618,2.181,9.349-1.205L205.3,321.5l-5.14,2.949c1.392-.187.925-.328,1.886,1.5a16.254,16.254,0,0,1,1.279,4.016c.991,4.368,1.612,8.855,2.4,13.265q2.513,14.128,4.936,28.272,4.68,27.312,9.026,54.68,8.878,55.9,16.361,112.011c.428,3.212,2.43,5.916,5.953,5.953,2.889.03,6.378-2.766,5.953-5.953q-10.04-75.348-22.512-150.34-3.175-19.035-6.514-38.042-1.626-9.261-3.29-18.514c-.853-4.74-1.746-9.441-4.628-13.429-2.284-3.163-5.686-5.506-9.715-5.48-6.546.041-8.318,7.1-10.819,12l-17.281,33.8-40.019,78.28,9.35-1.205c-31.782-33.311-48.3-78.543-83.264-109.175-3.809-3.337-10.1-1.169-10.163,4.21q-1.14,103.326,1.641,206.642c.206,7.647,12.113,7.677,11.906,0Z" transform="translate(-48.767 -305.035)"/><path class="cls-1" d="M321.632,458.469c-14.79-2.634-30.674-1.046-43.556,7.2a44.756,44.756,0,0,0-20.736,35.236c-.715,12.769,5.948,31.114,20.918,31.889,14.993.777,28.347-14.971,36.447-25.767a101.208,101.208,0,0,0,19.151-48.6l-11.094,3Q339.9,484.876,355.5,509.389c4.1,6.447,14.409.481,10.281-6.01q-15.588-24.507-32.733-47.96c-3.634-4.971-10.357-2.959-11.094,3a89.14,89.14,0,0,1-16.123,40.687,84,84,0,0,1-15.105,16.124c-2.776,2.263-6.035,4.7-9.626,5.434-4.192.859-6.573-1.545-8.586-4.963-6.532-11.092-2.98-26.192,5.757-35.038,10.282-10.409,26.225-13.207,40.2-10.718,7.493,1.334,10.709-10.138,3.166-11.481Z" transform="translate(-48.767 -305.035)"/><path class="cls-1" d="M370.281,465.4c20.019-1.241,19.669,25.811,18.921,39.114-.374,6.637,10.342,8.186,11.693,1.583a122.53,122.53,0,0,1,11.059-31.966c3.89-7.5,9.806-16.971,18.786-18.78s16.1,5.883,20.092,12.988c5.575,9.913,7.6,21.4,7.025,32.659-.389,7.658,11.518,7.637,11.907,0,.7-13.7-2.221-28.108-9.386-39.926-6.006-9.907-16.189-18.724-28.474-17.837-12.067.871-21.125,9.88-27.248,19.625-7.571,12.048-12.4,26.2-15.242,40.072l11.694,1.582c.679-12.07,1.092-25.125-5.212-35.946-5.26-9.029-14.9-15.738-25.615-15.074-7.611.472-7.665,12.382,0,11.906Z" transform="translate(-48.767 -305.035)"/><path class="cls-1" d="M489.263,454.144l62.952-.415-5.741-4.371c1.1,3.459-4.011,6.827-6.279,8.783-4.188,3.612-8.405,7.191-12.608,10.786l-24.476,20.938c-5.755,4.924-13.194,12.145-7.973,20.288,2.222,3.466,6.077,5.164,9.59,6.99q5.922,3.078,11.685,6.454c27.381,16.133,53.395,41.039,51.034,75.368-.958,13.941-7.422,27.819-19.665,35.2-14.815,8.937-34.576,8.2-50.983,4.88-8.155-1.651-15.341-5.157-16.757-14.124-1.351-8.558,2.779-16.574,7.674-23.286,5.566-7.632,12.313-14.528,18.645-21.52q10.25-11.319,20.777-22.383a1242.632,1242.632,0,0,1,99.015-93.193c5.864-4.946-2.594-13.332-8.419-8.419a1242.524,1242.524,0,0,0-97.1,91.184c-14.614,15.288-30.079,30.647-42.7,47.653-10.155,13.681-15.713,35.473-.834,48.246,7.175,6.159,16.821,7.615,25.881,8.755a105.839,105.839,0,0,0,29.2.023c17.381-2.639,32.921-12.481,40.771-28.491,15.839-32.3,1.351-68.423-23.892-91.024a164.486,164.486,0,0,0-25.286-18.35c-4.491-2.691-9.082-5.214-13.733-7.617-.912-.472-1.838-.918-2.738-1.412-1.543-.847-1.734-.473-1.251-1.776.759-2.047,4.707-4.374,6.218-5.666l29.667-25.38c7.526-6.438,19.717-14.452,16.016-26.077a6.106,6.106,0,0,0-5.74-4.371l-62.952.416c-7.659.05-7.676,11.957,0,11.906Z" transform="translate(-48.767 -305.035)"/><path class="cls-1" d="M665.79,459.048c-8.18,1.287-16.676,3.108-22.75,9.182a19.876,19.876,0,0,0-4.629,21.826c4.938,12.407,19.368,18.5,32.044,15.865,13.5-2.808,23.536-15.487,25.927-28.646,1.364-7.508-.032-15.694-7.065-19.9-5.728-3.423-12.768-3.279-19.158-2.451-3.214.417-5.917,2.439-5.953,5.954-.031,2.9,2.764,6.366,5.953,5.953,3.573-.464,7.767-1.1,11.281.017,4.546,1.443,3.886,6.15,2.86,10-2.059,7.721-7.71,15.252-15.755,17.3-6.634,1.69-14.874-.832-18.377-6.978-6.766-11.871,11-15.42,18.787-16.645,7.548-1.188,4.343-12.663-3.165-11.481Z" transform="translate(-48.767 -305.035)"/><path class="cls-1" d="M750.222,458.69a28.015,28.015,0,0,0-36.484,18.447c-4.361,15.3,5.915,33.03,23.168,30.833,8.168-1.04,14.836-5.971,19.9-12.246,4.949-6.137,10.352-13.808,10.946-21.889.566-7.7-3.681-14.377-10.483-17.789-8.189-4.107-17.3-2.367-25.8-.3-7.441,1.809-4.29,13.294,3.165,11.481,6.295-1.531,24-4.651,20.887,7.554-2.044,8.018-10.313,19.234-18.7,21.159-10.108,2.32-14.3-8.991-11.149-17.034,3.441-8.8,12.929-11.839,21.39-8.734,7.2,2.643,10.311-8.859,3.165-11.481Z" transform="translate(-48.767 -305.035)"/><path class="cls-1" d="M801.942,440.886l-9.306-5.392-3,11.093c13.54-.24,26.81,10.891,34.908,20.941,3.877,4.811,7.97,12.1,3.584,17.912-3.7,4.907-10.917,6.16-16.534,4.623C778.2,480.926,822,434.8,834.106,424.845c5.923-4.868-2.542-13.249-8.419-8.419a129.9,129.9,0,0,0-30.5,36.125c-7.32,12.9-11.979,29.013-.4,41.026,9.557,9.917,26.144,12.126,37.515,4.036,13.722-9.764,10.561-26.276,1.185-37.853-10.339-12.766-26.725-25.383-43.85-25.079-5.838.1-8.188,8.09-3,11.093l9.306,5.392c6.642,3.849,12.644-6.436,6.009-10.28Z" transform="translate(-48.767 -305.035)"/><path class="cls-1" d="M1095.963,513.616l38.215-108.163c6.261-17.721,12.478-35.459,18.785-53.164,4.917-13.8,10.428-27.809,22.339-37.08l-9.95-2.626a1037.629,1037.629,0,0,1,57.074,219.66c1.1,7.554,12.574,4.342,11.481-3.165a1037.654,1037.654,0,0,0-57.074-219.661c-1.708-4.484-6.265-5.495-9.95-2.626-12.209,9.5-18.63,23.859-23.844,38.015-6.564,17.82-12.686,35.814-19.012,53.72l-39.545,111.925c-2.557,7.239,8.942,10.353,11.481,3.165Z" transform="translate(-48.767 -305.035)"/><path class="cls-1" d="M1114.443,445.821a373.833,373.833,0,0,1,78.14-22.9c7.531-1.339,4.339-12.815-3.166-11.481a373.842,373.842,0,0,0-78.139,22.9c-6.973,2.9-3.914,14.424,3.165,11.481Z" transform="translate(-48.767 -305.035)"/><path class="cls-1" d="M1263.291,331q-2.234,91.926-9.244,183.646c-.438,5.73,8.657,8.34,11.093,3,6.118-13.4,11.76-27.163,18.6-40.212,5.933-11.325,15.5-23.536,29.566-23.644,11.837-.091,21.168,9.584,25.7,19.745,5.976,13.391,5.611,28.952,8.415,43.14,1.485,7.51,12.963,4.331,11.481-3.165-3.248-16.439-2.863-34.117-11.212-49.142-6.726-12.105-18.637-21.758-32.854-22.455-15.616-.764-28.936,9.784-37.115,22.185-4.439,6.731-7.634,14.192-10.972,21.5l-11.888,26.036,11.093,3q7.008-91.687,9.244-183.646c.186-7.665-11.72-7.661-11.906,0Z" transform="translate(-48.767 -305.035)"/><path class="cls-1" d="M1376.294,456.159c4.26-2.571,10.258-6.448,15.539-5.536,6.068,1.047,7.753,10.114,9.064,15a82.752,82.752,0,0,1,.5,40.4c-1.746,7.442,9.5,10.6,11.481,3.165,3.124-11.718,3.97-24.033,8.082-35.488,3.127-8.708,9.807-18.166,19.453-20.074,9.732-1.924,18.728,5.368,23.3,13.338,6.075,10.6,6.265,23.545,6.576,35.422.2,7.646,12.085,7.679,11.906,0-.487-20.884,11.893-45.633,36.146-43.595,21.066,1.769,26.576,27.224,29.922,44,1.5,7.508,12.975,4.33,11.48-3.166-4.643-23.289-14.478-52.083-42.851-52.816-30.074-.776-47.234,28.521-46.6,55.574h11.906c-.379-14.454-1.056-30.075-8.965-42.7-6.645-10.605-18.584-19.213-31.589-18.177-12.875,1.025-23.145,10.379-28.9,21.462-6.944,13.365-7.515,28.724-11.335,43.051l11.481,3.165c4.259-18.146,3.578-37.7-3.242-55.17-2.978-7.627-7.791-14.022-16.414-15.126-8.192-1.048-16.12,2.87-22.939,6.984-6.553,3.953-.575,14.253,6.009,10.281Z" transform="translate(-48.767 -305.035)"/><path class="cls-1" d="M1593.021,485.36a95.4,95.4,0,0,0,29.723-7.412c8.258-3.581,16.791-8.445,21.574-16.386,10.307-17.114-7.209-33.174-24.356-30.605-9.017,1.35-16.987,6.526-24.009,12.077-7.235,5.718-13.542,12.717-17.164,21.285-7.08,16.745-1.141,36.136,16.25,43.147,22.454,9.052,46.336-2.693,65.966-13.243,6.751-3.629.746-13.911-6.01-10.281-15.976,8.587-35.98,19.5-54.576,12.894-18.012-6.4-14.152-27.327-3.5-38.65,5.451-5.794,12.488-11.349,19.986-14.192,5.9-2.237,16.475-2.487,18.426,5.449,1.922,7.821-9,13.64-14.544,16.368a79.188,79.188,0,0,1-27.767,7.643c-7.57.68-7.642,12.593,0,11.906Z" transform="translate(-48.767 -305.035)"/><path class="cls-1" d="M1751.785,310.785l1.262,182.358h11.906q-2.163-18.294-4.327-36.587c-1.238-10.354-2.624-20.686-7.149-30.2-8.316-17.488-27.326-26.25-45.225-17.36-33.092,16.435-39.7,71.478-7.92,92.339,15.293,10.039,36.044,10.151,50.233-1.779,5.872-4.937-2.588-13.322-8.419-8.419-8.973,7.545-22.441,7.138-32.442,1.894-12.431-6.518-18.345-19.739-18.19-33.418.16-14.1,6.414-29.288,18.167-37.605,5.818-4.118,13.186-6.474,20.1-3.7,6.387,2.561,11.049,8.591,13.737,14.733,3.747,8.561,4.576,18.2,5.661,27.372l3.871,32.736c.874,7.4,11.961,7.871,11.906,0l-1.262-182.358c-.053-7.658-11.96-7.676-11.906,0Z" transform="translate(-48.767 -305.035)"/><path class="cls-1" d="M166.923,693.675q154.452-36.435,310.952-63.266,157.939-27.038,317.366-44.1,157.788-16.883,316.42-23.978,158.529-7.087,317.295-4.343,159.444,2.764,318.507,15.5,19.482,1.563,38.949,3.274c7.631.669,7.587-11.241,0-11.906q-158.864-13.923-318.38-17.949-159.418-3.985-318.88,1.977-159.36,5.957-318.143,21.816Q673.094,586.48,516.346,611.977q-157.4,25.608-312.99,61.031-19.818,4.514-39.6,9.186c-7.454,1.759-4.3,13.242,3.165,11.481Z" transform="translate(-48.767 -305.035)"/></svg>